<svg width="38" height="34" viewBox="0 0 38 34" fill="none" xmlns="http://www.w3.org/2000/svg" xmlns:xlink="http://www.w3.org/1999/xlink">
<path d="M13,32.451C13,33.28 13.672,33.951 14.5,33.951C15.329,33.951 16,33.28 16,32.451L13,32.451ZM16,2.451C16,1.623 15.329,0.951 14.5,0.951C13.672,0.951 13,1.623 13,2.451L16,2.451ZM16,32.451L16,2.451L13,2.451L13,32.451L16,32.451Z" transform="rotate(-180 14.5 17.451)" fill="#FFFFFF"/>
<path d="M36.819,12.113C37.212,11.384 36.94,10.474 36.21,10.081C35.481,9.688 34.571,9.96 34.178,10.69L36.819,12.113ZM12.721,10.69C12.328,9.96 11.418,9.688 10.689,10.081C9.96,10.474 9.687,11.384 10.08,12.113L12.721,10.69ZM35.499,11.401C34.178,10.69 34.178,10.69 34.178,10.689C34.178,10.689 34.178,10.689 34.178,10.689C34.178,10.689 34.178,10.69 34.178,10.69C34.178,10.691 34.177,10.693 34.175,10.695C34.173,10.699 34.169,10.707 34.163,10.717C34.152,10.737 34.135,10.769 34.112,10.81C34.066,10.893 33.996,11.018 33.905,11.177C33.723,11.496 33.455,11.954 33.116,12.506C32.435,13.612 31.477,15.079 30.357,16.538C29.231,18.006 27.978,19.418 26.716,20.449C25.419,21.509 24.313,22.001 23.453,22.001L23.453,25.001C25.354,25.001 27.135,23.981 28.614,22.772C30.129,21.535 31.543,19.921 32.737,18.365C33.939,16.799 34.956,15.24 35.671,14.078C36.029,13.495 36.314,13.009 36.51,12.666C36.608,12.494 36.684,12.358 36.736,12.264C36.762,12.217 36.782,12.181 36.796,12.155C36.803,12.143 36.808,12.133 36.812,12.126C36.814,12.122 36.816,12.119 36.817,12.117C36.817,12.116 36.818,12.115 36.818,12.115C36.818,12.114 36.819,12.114 36.819,12.114C36.819,12.113 36.819,12.113 35.499,11.401ZM23.453,22.001C22.591,22.001 21.484,21.509 20.186,20.449C18.924,19.418 17.67,18.006 16.544,16.538C15.423,15.079 14.465,13.612 13.784,12.506C13.444,11.954 13.176,11.496 12.994,11.177C12.903,11.017 12.833,10.893 12.787,10.81C12.764,10.768 12.747,10.737 12.736,10.717C12.73,10.707 12.726,10.699 12.724,10.695C12.722,10.692 12.722,10.691 12.721,10.69C12.721,10.689 12.721,10.689 12.721,10.689C12.721,10.689 12.721,10.689 12.721,10.689C12.721,10.689 12.721,10.69 11.401,11.401C10.08,12.113 10.08,12.114 10.081,12.114C10.081,12.114 10.081,12.114 10.081,12.115C10.082,12.115 10.082,12.116 10.083,12.117C10.084,12.119 10.085,12.122 10.087,12.126C10.091,12.133 10.096,12.143 10.103,12.156C10.117,12.181 10.137,12.218 10.163,12.265C10.216,12.359 10.292,12.494 10.39,12.666C10.586,13.009 10.87,13.495 11.229,14.078C11.944,15.241 12.962,16.799 14.164,18.365C15.359,19.922 16.773,21.535 18.289,22.773C19.769,23.981 21.55,25.001 23.453,25.001L23.453,22.001Z" transform="rotate(-180 23.45 17.451)" fill="#FFFFFF"/>
</svg>
