<svg width="670" height="730" viewBox="0 0 670 730" fill="none" xmlns="http://www.w3.org/2000/svg" xmlns:xlink="http://www.w3.org/1999/xlink">
<rect  x="0" y="0" width="670" height="680" rx="40" fill="url(#pattern_0_0_17)"/>
<rect  x="24" y="24" width="80" height="80" rx="16" fill="#F3F8FE"/>
<path d="M67.586,75.414C68.367,76.195 69.633,76.195 70.414,75.414C71.195,74.633 71.195,73.367 70.414,72.586L67.586,75.414ZM59,64L57.586,62.586C56.805,63.367 56.805,64.633 57.586,65.414L59,64ZM70.414,55.414C71.195,54.633 71.195,53.367 70.414,52.586C69.633,51.805 68.367,51.805 67.586,52.586L70.414,55.414ZM70.414,72.586L60.414,62.586L57.586,65.414L67.586,75.414L70.414,72.586ZM60.414,65.414L70.414,55.414L67.586,52.586L57.586,62.586L60.414,65.414Z" fill="#B8B8B8"/>
<g filter="url(#filter0_18)">
<rect  x="554" y="642" width="88" height="88" rx="160" fill="#F2F7FD"/>
<path d="M607.232,664C608.798,664 610.361,664.221 611.847,664.72C621.005,667.697 624.305,677.746 621.549,686.53C619.986,691.018 617.43,695.114 614.083,698.462C609.292,703.101 604.034,707.22 598.375,710.768L597.754,711.143L597.109,710.743C591.43,707.22 586.142,703.101 581.307,698.437C577.982,695.09 575.424,691.018 573.836,686.53C571.032,677.746 574.332,667.697 583.589,664.668C584.309,664.42 585.051,664.246 585.795,664.149L586.093,664.149C586.79,664.048 587.482,664 588.177,664L588.45,664C590.013,664.048 591.527,664.32 592.993,664.819L593.139,664.819C593.239,664.866 593.313,664.918 593.363,664.966C593.911,665.142 594.43,665.34 594.926,665.613L595.869,666.035C596.096,666.156 596.352,666.342 596.573,666.503C596.713,666.604 596.839,666.696 596.936,666.755C596.976,666.778 597.017,666.802 597.059,666.827C597.271,666.951 597.493,667.08 597.68,667.223C600.436,665.117 603.784,663.976 607.232,664ZM613.821,681.864C614.839,681.836 615.707,681.02 615.781,679.976L615.781,679.68C615.856,676.204 613.749,673.056 610.546,671.84C609.529,671.49 608.412,672.038 608.04,673.08C607.693,674.122 608.239,675.264 609.281,675.634C610.871,676.229 611.936,677.795 611.936,679.529L611.936,679.606C611.889,680.174 612.06,680.722 612.407,681.144C612.754,681.566 613.275,681.812 613.821,681.864Z" clip-rule="evenodd" fill-rule="evenodd" transform="rotate(360 597.68 687.571)" fill="#EC5655"/>
<path d="M607.222,664C608.787,664 610.35,664.221 611.837,664.72C620.995,667.697 624.295,677.746 621.538,686.53C619.975,691.018 617.419,695.114 614.072,698.462C609.281,703.101 604.023,707.22 598.364,710.768L597.743,711.143L597.098,710.743C591.419,707.22 586.132,703.101 581.296,698.437C577.971,695.09 575.413,691.018 573.825,686.53C571.021,677.746 574.321,667.697 583.578,664.668C584.298,664.42 585.04,664.246 585.784,664.149L586.082,664.149C586.779,664.048 587.471,664 588.166,664L588.439,664C590.002,664.048 591.516,664.32 592.982,664.819L593.128,664.819C593.228,664.866 593.302,664.918 593.352,664.966C593.9,665.142 594.419,665.34 594.915,665.613L595.858,666.035C596.086,666.156 596.341,666.342 596.562,666.503C596.702,666.604 596.828,666.696 596.925,666.755C596.965,666.778 597.006,666.802 597.048,666.827C597.261,666.951 597.482,667.08 597.669,667.223C600.426,665.117 603.773,663.976 607.222,664ZM613.811,681.864C614.828,681.836 615.696,681.02 615.771,679.976L615.771,679.68C615.845,676.204 613.739,673.056 610.535,671.84C609.518,671.49 608.402,672.038 608.029,673.08C607.682,674.122 608.228,675.264 609.27,675.634C610.86,676.229 611.925,677.795 611.925,679.529L611.925,679.606C611.878,680.174 612.049,680.722 612.396,681.144C612.744,681.566 613.265,681.812 613.811,681.864Z" clip-rule="evenodd" fill-rule="evenodd" fill="#EC5655"/>
</g>
<defs>
<filter id="filter0_18" x="535" y="623" width="82" height="82" filterUnits="userSpaceOnUse" color-interpolation-filters="sRGB">
<feFlood flood-opacity="0" result="BackgroundImageFix"/>
<feColorMatrix in="SourceAlpha" type="matrix" values="0 0 0 0 0 0 0 0 0 0 0 0 0 0 0 0 0 0 127 0" result="hardAlpha"/>
<feMorphology radius="0" operator="dilate" in="SourceAlpha" result="0dropshadow"/>
<feOffset dx="0" dy="6"/>
<feGaussianBlur stdDeviation="9.5"/>
<feComposite in2="hardAlpha" operator="out"/>
<feColorMatrix type="matrix" values="0 0 0 0 0 0 0 0 0 0.219608 0 0 0 0 1 0 0 0 0.1 0"/>
<feBlend mode="normal" in2="BackgroundImageFix" result="0dropshadow"/>
<feBlend mode="normal" in="SourceGraphic" in2="0dropshadow" result="shape"/>
</filter>
</defs>
</svg>
