<svg width="22" height="22" viewBox="0 0 22 22" fill="none" xmlns="http://www.w3.org/2000/svg" xmlns:xlink="http://www.w3.org/1999/xlink">
<path d="M16.72,0.028C16.072,-0.189 15.389,-0.286 14.706,-0.286C13.201,-0.296 11.741,0.202 10.538,1.121C10.44,1.046 10.321,0.98 10.213,0.916C10.105,0.85 9.91,0.689 9.748,0.602L9.336,0.418C9.12,0.299 8.893,0.213 8.654,0.136C8.632,0.115 8.6,0.092 8.557,0.072L8.493,0.072C7.853,-0.146 7.192,-0.265 6.51,-0.286L6.391,-0.286C6.088,-0.286 5.786,-0.265 5.482,-0.221L5.352,-0.221C5.027,-0.178 4.703,-0.103 4.389,0.006C0.35,1.328 -1.09,5.713 0.133,9.545C0.826,11.504 1.942,13.281 3.393,14.741C5.503,16.777 7.811,18.574 10.289,20.111L10.57,20.286L10.841,20.122C13.311,18.574 15.605,16.777 17.696,14.752C19.156,13.291 20.271,11.504 20.954,9.545C22.156,5.713 20.716,1.328 16.72,0.028L16.72,0.028Z" fill="#EC5655"/>
</svg>
