<svg width="30" height="28" viewBox="0 0 30 28" fill="none" xmlns="http://www.w3.org/2000/svg" xmlns:xlink="http://www.w3.org/1999/xlink">
<mask id="mask_0_0_168" style="mask-type:alpha" maskUnits="userSpaceOnUse" x="1" y="-0.46521" width="14.396368" height="13.713192">
<rect  x="1" y="-0.465" width="28.793" height="27.426" fill="#000000"/>
</mask>
<g mask="url(#mask_0_0_168)">
<path d="M3.568,12.363C5.54,18.498 13.33,23.458 15.4,24.686C17.477,23.445 25.324,18.43 27.232,12.369C28.485,8.45 27.322,3.487 22.701,1.998C20.462,1.279 17.85,1.716 16.047,3.112C15.67,3.401 15.147,3.407 14.767,3.12C12.857,1.684 10.362,1.264 8.088,1.998C3.474,3.486 2.315,8.449 3.568,12.363M15.399,26.96C15.224,26.96 15.051,26.918 14.894,26.832C14.454,26.591 4.084,20.876 1.557,13.008C1.555,13.008 1.555,13.007 1.555,13.007C-0.031,8.054 1.735,1.829 7.438,-0.009C10.116,-0.876 13.035,-0.495 15.395,0.995C17.681,-0.451 20.719,-0.85 23.344,-0.009C29.052,1.832 30.824,8.055 29.239,13.007C26.793,20.784 16.348,26.586 15.905,26.829C15.748,26.916 15.573,26.96 15.399,26.96Z" clip-rule="evenodd" fill-rule="evenodd" fill="#B8B8B8"/>
</g>
<path d="M23.717,10.259C23.172,10.259 22.711,9.841 22.666,9.29C22.573,8.134 21.8,7.158 20.699,6.802C20.143,6.622 19.839,6.027 20.018,5.474C20.199,4.92 20.789,4.619 21.346,4.794C23.263,5.414 24.606,7.112 24.77,9.118C24.817,9.699 24.385,10.208 23.804,10.255C23.774,10.258 23.746,10.259 23.717,10.259Z" clip-rule="evenodd" fill-rule="evenodd" fill="#B8B8B8"/>
</svg>
