<svg width="40" height="40" viewBox="0 0 40 40" fill="none" xmlns="http://www.w3.org/2000/svg" xmlns:xlink="http://www.w3.org/1999/xlink">
<path d="M-0.2,23.426C-0.2,12.164 1.028,12.95 7.638,6.82C10.53,4.492 15.03,0 18.916,0C22.8,0 27.39,4.47 30.308,6.82C36.918,12.95 38.144,12.164 38.144,23.426C38.144,40 34.226,40 18.972,40C3.718,40 -0.2,40 -0.2,23.426Z" clip-rule="evenodd" fill-rule="evenodd" fill="url(#pf_0_0_156)"/>
<path d="M13.159,26.77C12.331,26.77 11.659,27.441 11.659,28.27C11.659,29.098 12.331,29.77 13.159,29.77L13.159,26.77ZM24.789,29.77C25.618,29.77 26.289,29.098 26.289,28.27C26.289,27.441 25.618,26.77 24.789,26.77L24.789,29.77ZM13.159,29.77L24.789,29.77L24.789,26.77L13.159,26.77L13.159,29.77Z" fill="#FFFFFF"/>
<defs>
<linearGradient id="pf_0_0_156" x1="37.651" y1="28.846" x2="-1.371" y2="9.231" gradientUnits="userSpaceOnUse">
<stop stop-color="#176FF2"/>
<stop offset="1" stop-color="#196EEE"/>
</linearGradient>
</defs>
</svg>
