<svg width="28" height="34" viewBox="0 0 28 34" fill="none" xmlns="http://www.w3.org/2000/svg" xmlns:xlink="http://www.w3.org/1999/xlink">
<path d="M12.975,20.077C9.72,20.077 6.529,20.317 4.105,21.13C2.886,21.539 1.749,22.128 0.904,23.005C0.024,23.919 -0.476,25.083 -0.476,26.455L2.524,26.455C2.524,25.875 2.712,25.453 3.065,25.087C3.454,24.683 4.096,24.297 5.059,23.974C6.999,23.324 9.783,23.077 12.975,23.077L12.975,20.077ZM-0.476,26.455C-0.476,27.823 0.019,28.987 0.895,29.905C1.735,30.786 2.868,31.381 4.086,31.795C6.507,32.618 9.7,32.867 12.975,32.867L12.975,29.867C9.768,29.867 6.986,29.612 5.052,28.955C4.092,28.629 3.452,28.239 3.065,27.833C2.712,27.464 2.524,27.038 2.524,26.455L-0.476,26.455ZM12.975,32.867C16.23,32.867 19.42,32.627 21.843,31.814C23.063,31.405 24.199,30.815 25.044,29.938C25.924,29.024 26.424,27.861 26.424,26.49L23.424,26.49C23.424,27.069 23.236,27.491 22.883,27.857C22.494,28.261 21.852,28.647 20.889,28.97C18.95,29.62 16.166,29.867 12.975,29.867L12.975,32.867ZM26.424,26.49C26.424,25.121 25.929,23.958 25.053,23.041C24.213,22.16 23.081,21.564 21.863,21.15C19.442,20.327 16.249,20.077 12.975,20.077L12.975,23.077C16.181,23.077 18.963,23.333 20.897,23.99C21.856,24.316 22.496,24.706 22.883,25.112C23.236,25.481 23.424,25.907 23.424,26.49L26.424,26.49Z" fill="#B8B8B8"/>
<path d="M5.314,8.35L6.743,8.354L6.743,8.35L5.314,8.35ZM12.921,16.01L12.916,17.438L12.921,17.438L12.921,16.01ZM12.975,17.438C17.994,17.438 22.062,13.368 22.062,8.35L19.205,8.35C19.205,11.791 16.415,14.581 12.975,14.581L12.975,17.438ZM22.062,8.35C22.062,3.33 17.994,-0.738 12.975,-0.738L12.975,2.119C16.416,2.119 19.205,4.908 19.205,8.35L22.062,8.35ZM12.975,-0.738C7.956,-0.738 3.886,3.33 3.886,8.35L6.743,8.35C6.743,4.909 9.533,2.119 12.975,2.119L12.975,-0.738ZM3.886,8.345C3.869,13.349 7.912,17.421 12.916,17.438L12.925,14.581C9.501,14.57 6.731,11.782 6.743,8.354L3.886,8.345ZM12.921,17.438L12.975,17.438L12.975,14.581L12.921,14.581L12.921,17.438Z" fill="#B8B8B8"/>
</svg>
