<svg width="34" height="34" viewBox="0 0 34 34" fill="none" xmlns="http://www.w3.org/2000/svg" xmlns:xlink="http://www.w3.org/1999/xlink">
<mask id="mask_0_0_94" style="mask-type:alpha" maskUnits="userSpaceOnUse" x="-0.666656" y="-0.666687" width="16.230669" height="16.230833">
<rect  x="-0.667" y="-0.667" width="32.461" height="32.462" fill="#000000"/>
</mask>
<mask id="mask_0_0_99" style="mask-type:alpha" maskUnits="userSpaceOnUse" x="24.733276" y="25.511536" width="4.186707" height="4.178958">
<rect  x="24.733" y="25.512" width="8.373" height="8.358" fill="#000000"/>
</mask>
<g mask="url(#mask_0_0_94)">
<path d="M15.565,1.833C7.993,1.833 1.833,7.992 1.833,15.563C1.833,23.135 7.993,29.295 15.565,29.295C23.135,29.295 29.295,23.135 29.295,15.563C29.295,7.992 23.135,1.833 15.565,1.833M15.565,31.795C6.615,31.795 -0.667,24.513 -0.667,15.563C-0.667,6.613 6.615,-0.667 15.565,-0.667C24.515,-0.667 31.795,6.613 31.795,15.563C31.795,24.513 24.515,31.795 15.565,31.795Z" clip-rule="evenodd" fill-rule="evenodd" fill="#B8B8B8"/>
</g>
<g mask="url(#mask_0_0_99)">
<path d="M31.857,33.869C31.539,33.869 31.219,33.748 30.974,33.504L25.1,27.648C24.612,27.159 24.61,26.368 25.099,25.879C25.585,25.388 26.377,25.391 26.867,25.876L32.74,31.734C33.229,32.223 33.23,33.013 32.742,33.501C32.499,33.748 32.177,33.869 31.857,33.869Z" clip-rule="evenodd" fill-rule="evenodd" fill="#B8B8B8"/>
</g>
</svg>
