<svg width="22" height="14" viewBox="0 0 22 14" fill="none" xmlns="http://www.w3.org/2000/svg" xmlns:xlink="http://www.w3.org/1999/xlink">
<path d="M19,1L20.5,1C20.5,0.172 19.828,-0.5 19,-0.5L19,1ZM11,9L9.939,10.061C10.525,10.646 11.475,10.646 12.061,10.061L11,9ZM7,5L8.061,3.939C7.475,3.354 6.525,3.354 5.939,3.939L7,5ZM-0.061,9.939C-0.646,10.525 -0.646,11.475 -0.061,12.061C0.525,12.646 1.475,12.646 2.061,12.061L-0.061,9.939ZM13,-0.5C12.172,-0.5 11.5,0.172 11.5,1C11.5,1.828 12.172,2.5 13,2.5L13,-0.5ZM17.5,7C17.5,7.828 18.172,8.5 19,8.5C19.828,8.5 20.5,7.828 20.5,7L17.5,7ZM17.939,-0.061L9.939,7.939L12.061,10.061L20.061,2.061L17.939,-0.061ZM12.061,7.939L8.061,3.939L5.939,6.061L9.939,10.061L12.061,7.939ZM5.939,3.939L-0.061,9.939L2.061,12.061L8.061,6.061L5.939,3.939ZM17.5,1L17.5,7L20.5,7L20.5,1L17.5,1ZM13,2.5L19,2.5L19,-0.5L13,-0.5L13,2.5Z" fill="#84ABE4"/>
</svg>
