<svg width="34" height="28" viewBox="0 0 34 28" fill="none" xmlns="http://www.w3.org/2000/svg" xmlns:xlink="http://www.w3.org/1999/xlink">
<path d="M32,17.225L33.35,17.225C33.35,16.479 32.746,15.875 32,15.875L32,17.225ZM32,10.776L32,12.126C32.358,12.126 32.702,11.983 32.955,11.73C33.208,11.477 33.35,11.133 33.35,10.775L32,10.776ZM31.999,6.886L30.649,6.886L30.649,6.887L31.999,6.886ZM2.008,6.886L3.358,6.887L3.358,6.886L2.008,6.886ZM2.007,10.903L0.657,10.902C0.657,11.26 0.799,11.604 1.052,11.857C1.305,12.11 1.649,12.252 2.007,12.252L2.007,10.903ZM2.007,17.225L2.007,15.875C1.261,15.875 0.657,16.479 0.657,17.225L2.007,17.225ZM27.054,27.347C30.516,27.347 33.35,24.573 33.35,21.113L30.651,21.113C30.651,23.05 29.058,24.647 27.054,24.647L27.054,27.347ZM33.35,21.113L33.35,17.225L30.651,17.225L30.651,21.113L33.35,21.113ZM32,15.875C30.922,15.875 30.086,15.026 30.086,14.001L27.386,14.001C27.386,16.548 29.463,18.575 32,18.575L32,15.875ZM30.086,14.001C30.086,12.976 30.922,12.126 32,12.126L32,9.426C29.462,9.426 27.386,11.455 27.386,14.001L30.086,14.001ZM33.35,10.775L33.348,6.886L30.649,6.887L30.651,10.776L33.35,10.775ZM33.348,6.886C33.348,3.426 30.513,0.652 27.053,0.652L27.053,3.352C29.055,3.352 30.649,4.949 30.649,6.886L33.348,6.886ZM27.053,0.652L6.954,0.652L6.954,3.352L27.053,3.352L27.053,0.652ZM6.954,0.652C3.494,0.652 0.658,3.426 0.658,6.886L3.358,6.886C3.358,4.949 4.952,3.352 6.954,3.352L6.954,0.652ZM0.658,6.886L0.657,10.902L3.356,10.903L3.358,6.887L0.658,6.886ZM2.007,12.252C3.157,12.252 3.921,13.046 3.921,14.001L6.621,14.001C6.621,11.386 4.473,9.553 2.007,9.553L2.007,12.252ZM3.921,14.001C3.921,15.026 3.085,15.875 2.007,15.875L2.007,18.575C4.544,18.575 6.621,16.548 6.621,14.001L3.921,14.001ZM0.657,17.225L0.657,21.113L3.356,21.113L3.356,17.225L0.657,17.225ZM0.657,21.113C0.657,24.573 3.49,27.347 6.952,27.347L6.952,24.647C4.949,24.647 3.356,23.05 3.356,21.113L0.657,21.113ZM6.952,27.347L27.054,27.347L27.054,24.647L6.952,24.647L6.952,27.347Z" fill="#B8B8B8"/>
</svg>
