<svg width="58" height="60" viewBox="0 0 58 60" fill="none" xmlns="http://www.w3.org/2000/svg" xmlns:xlink="http://www.w3.org/1999/xlink">
<path d="M48,0C49.313,0 50.614,0.259 51.827,0.761C53.04,1.264 54.142,2 55.071,2.929C56,3.858 56.736,4.96 57.239,6.173C57.741,7.386 58,8.687 58,10C58,22.778 54.816,36.374 50,39.386L50,60L46,60L46,39.388C41.272,36.432 38.116,23.264 38.004,10.69L38,10L38.01,9.566C38.122,6.991 39.223,4.56 41.084,2.777C42.946,0.995 45.423,0 48,0L48,0ZM30,0L30,36.236C34.634,37.35 38,42.256 38,48C38,54.54 33.634,60 28,60C22.366,60 18,54.54 18,48C18,42.256 21.366,37.348 26,36.236L26,0L30,0ZM0,0L2,0C10.94,0 15.868,12.73 15.998,37.01L16,40L3.998,40L4,60L0,60L0,0ZM28,40C24.796,40 22,43.496 22,48C22,52.504 24.796,56 28,56C31.204,56 34,52.504 34,48C34,43.496 31.204,40 28,40ZM4,4.478L4,36L11.99,36L11.956,34.072L11.902,32.174C11.346,16.314 8.47,7.246 4.448,4.728L4.208,4.588L4,4.478ZM42.01,9.648L42,10L42.004,10.62C42.094,19.262 44.066,28.886 46.002,33.4L46.002,4.34C44.888,4.734 43.915,5.448 43.205,6.392C42.495,7.336 42.079,8.469 42.01,9.648L42.01,9.648ZM50.002,4.342L50.002,33.394C51.98,28.774 54,18.8 54,10C54,8.759 53.615,7.549 52.899,6.535C52.183,5.522 51.17,4.756 50,4.342L50.002,4.342Z" fill="#B8B8B8"/>
</svg>
