<svg width="64" height="48" viewBox="0 0 64 48" fill="none" xmlns="http://www.w3.org/2000/svg" xmlns:xlink="http://www.w3.org/1999/xlink">
<path d="M31,32.666C35.05,32.666 38.333,35.95 38.333,40C38.333,44.05 35.05,47.333 31,47.333C26.95,47.333 23.666,44.05 23.666,40C23.666,35.95 26.95,32.666 31,32.666ZM31,36.666C29.159,36.666 27.666,38.159 27.666,40C27.666,41.841 29.159,43.333 31,43.333C32.841,43.333 34.333,41.841 34.333,40C34.333,38.159 32.841,36.666 31,36.666ZM31,22C38.034,22 44.125,26.034 47.086,31.915L44.058,34.94C42.029,29.709 36.948,26 31,26C25.052,26 19.971,29.709 17.942,34.94L14.915,31.913C17.876,26.033 23.967,22 31,22L31,22ZM31,11.334C40.961,11.334 49.735,16.414 54.873,24.125L51.979,27.02C47.63,20.005 39.861,15.334 31,15.334C22.14,15.334 14.371,20.005 10.021,27.02L7.127,24.125C12.265,16.414 21.039,11.334 31,11.334L31,11.334ZM31,0.666C43.902,0.666 55.353,6.878 62.526,16.475L59.665,19.337C53.247,10.45 42.799,4.666 31,4.666C19.202,4.666 8.754,10.449 2.336,19.335L-0.525,16.473C6.648,6.878 18.099,0.666 31,0.666L31,0.666Z" fill="#B8B8B8"/>
</svg>
