<svg width="14" height="24" viewBox="0 0 14 24" fill="none" xmlns="http://www.w3.org/2000/svg" xmlns:xlink="http://www.w3.org/1999/xlink">
<path d="M8.898,21.899C9.679,22.68 10.946,22.68 11.727,21.899C12.508,21.118 12.508,19.851 11.727,19.07L8.898,21.899ZM1.313,11.484L-0.102,10.07C-0.883,10.851 -0.883,12.118 -0.102,12.899L1.313,11.484ZM11.727,3.899C12.508,3.118 12.508,1.851 11.727,1.07C10.946,0.289 9.679,0.289 8.898,1.07L11.727,3.899ZM11.727,19.07L2.727,10.07L-0.102,12.899L8.898,21.899L11.727,19.07ZM2.727,12.899L11.727,3.899L8.898,1.07L-0.102,10.07L2.727,12.899Z" transform="rotate(-180 5.813 11.484)" fill="url(#ps_0_0_32)"/>
<defs>
<linearGradient id="ps_0_0_32" x1="9.793" y1="7.1" x2="0.966" y2="16.259" gradientUnits="userSpaceOnUse">
<stop stop-color="#176FF2"/>
<stop offset="1" stop-color="#196EEE"/>
</linearGradient>
</defs>
</svg>
