<svg width="60" height="56" viewBox="0 0 60 56" fill="none" xmlns="http://www.w3.org/2000/svg" xmlns:xlink="http://www.w3.org/1999/xlink">
<path d="M13,0C15.214,0 17.351,0.815 19.001,2.291C20.652,3.767 21.7,5.8 21.946,8L26,8L26,12L14,12L14,8L17.9,8C17.659,6.812 16.995,5.752 16.031,5.017C15.068,4.283 13.87,3.923 12.661,4.005C11.452,4.087 10.313,4.606 9.458,5.464C8.602,6.323 8.088,7.463 8.01,8.672L8,9L8,28L60,28L60,32L56,32L56,42C56,43.946 55.433,45.85 54.367,47.479C53.301,49.107 51.784,50.389 50,51.168L50,56L46,56L46,52L14,52L14,56L10,56L10,51.168C8.29,50.421 6.822,49.211 5.764,47.674C4.705,46.137 4.098,44.334 4.01,42.47L4,42L4,32L0,32L0,28L4,28L4,9C4,6.613 4.948,4.324 6.636,2.636C8.324,0.948 10.613,0 13,0L13,0ZM51.998,32L7.998,32L8,42C8,43.47 8.539,44.889 9.516,45.988C10.493,47.087 11.84,47.788 13.3,47.96L13.648,47.99L14,48L46,48C47.53,48 49.003,47.415 50.117,46.365C51.23,45.316 51.9,43.88 51.99,42.352L52,42L51.998,32Z" transform="rotate(360 30 28)" fill="#B8B8B8"/>
</svg>
