<svg width="48" height="54" viewBox="0 0 48 54" fill="none" xmlns="http://www.w3.org/2000/svg" xmlns:xlink="http://www.w3.org/1999/xlink">
<path d="M40,46C41.976,46 43.89,46.702 45.342,48.018C45.954,48.57 46.762,48.908 47.626,48.984L48,49L48,53L47.544,52.988C45.734,52.898 44.009,52.19 42.658,50.982C41.924,50.338 40.977,49.988 40,50C38.996,50 38.044,50.35 37.344,50.982C35.875,52.292 33.972,53.011 32.004,53C30.034,53.012 28.13,52.293 26.66,50.982C25.925,50.337 24.978,49.987 24,50C22.994,50 22.04,50.35 21.342,50.982C19.873,52.292 17.97,53.011 16.002,53C14.033,53.013 12.128,52.294 10.658,50.984C9.924,50.339 8.977,49.988 8,50C6.994,50 6.04,50.35 5.34,50.982C3.989,52.19 2.266,52.898 0.456,52.988L0,53L0,49L0.374,48.984C1.22,48.919 2.022,48.58 2.658,48.018C4.127,46.707 6.031,45.988 8,46C9.976,46 11.89,46.704 13.342,48.018C14.042,48.65 14.994,48.998 16.002,49C17.006,49 17.96,48.65 18.658,48.016C20.127,46.706 22.031,45.987 24,46C25.976,46 27.89,46.702 29.342,48.018C30.042,48.65 30.994,48.998 32.002,49C33.006,49 33.96,48.65 34.658,48.018C36.127,46.707 38.03,45.988 39.998,46L40,46ZM40,36C41.976,36 43.89,36.702 45.342,38.018C45.954,38.57 46.762,38.908 47.626,38.984L48,39L48,43L47.544,42.988C45.734,42.898 44.009,42.19 42.658,40.982C41.924,40.338 40.977,39.988 40,40C38.996,40 38.044,40.35 37.344,40.982C35.875,42.292 33.972,43.011 32.004,43C30.034,43.012 28.13,42.293 26.66,40.982C25.925,40.337 24.978,39.987 24,40C22.994,40 22.04,40.35 21.342,40.982C19.873,42.292 17.97,43.011 16.002,43C14.033,43.013 12.128,42.294 10.658,40.984C9.924,40.339 8.977,39.988 8,40C6.994,40 6.04,40.35 5.34,40.982C3.989,42.19 2.266,42.898 0.456,42.988L0,43L0,39L0.374,38.984C1.22,38.919 2.022,38.58 2.658,38.018C4.127,36.707 6.031,35.988 8,36C9.976,36 11.89,36.704 13.342,38.018C14.042,38.65 14.994,38.998 16.002,39C17.006,39 17.96,38.65 18.658,38.016C20.127,36.706 22.031,35.987 24,36C25.976,36 27.89,36.702 29.342,38.018C30.042,38.65 30.994,38.998 32.002,39C33.006,39 33.96,38.65 34.658,38.018C36.127,36.707 38.03,35.988 39.998,36L40,36ZM32,0C34.052,0 36.026,0.789 37.514,2.203C39.001,3.618 39.887,5.55 39.99,7.6L40,8L40,12L48,12L48,16L40,16L40,26C41.824,26 43.596,26.6 45,27.724L45.342,28.018C45.954,28.57 46.762,28.908 47.626,28.984L48,29L48,33L47.544,32.988C45.734,32.898 44.009,32.19 42.658,30.982C41.924,30.338 40.977,29.988 40,30C38.996,30 38.044,30.35 37.344,30.982C35.875,32.292 33.972,33.011 32.004,33C30.034,33.012 28.13,32.293 26.66,30.982C25.925,30.337 24.978,29.987 24,30C22.994,30 22.04,30.35 21.342,30.982C19.873,32.292 17.97,33.011 16.002,33C14.033,33.013 12.128,32.294 10.658,30.984C9.924,30.339 8.977,29.988 8,30C6.994,30 6.04,30.35 5.34,30.982C3.989,32.19 2.266,32.898 0.456,32.988L0,33L0,29L0.374,28.984C1.22,28.919 2.022,28.58 2.658,28.018C4.127,26.707 6.031,25.988 8,26C9.976,26 11.89,26.704 13.342,28.018C14.042,28.65 14.994,28.998 16.002,29C17.006,29 17.96,28.65 18.658,28.016C20.01,26.808 21.735,26.1 23.546,26.012L24,26L24,16L0,16L0,12L24,12L24,8C24.005,6.962 23.606,5.963 22.887,5.214C22.169,4.464 21.187,4.024 20.15,3.985C19.113,3.946 18.101,4.312 17.329,5.005C16.556,5.698 16.083,6.665 16.01,7.7L16,8L12,8C12,6.375 12.495,4.789 13.419,3.452C14.343,2.116 15.652,1.092 17.172,0.518C18.692,-0.056 20.351,-0.154 21.928,0.237C23.505,0.629 24.925,1.491 26,2.71C26.749,1.857 27.672,1.174 28.707,0.707C29.742,0.239 30.865,-0.002 32,0L32,0ZM28,27.046C28.32,27.228 28.626,27.434 28.918,27.66L29.342,28.018C30.042,28.65 30.994,28.998 32.002,29C32.88,29 33.722,28.732 34.384,28.24L34.658,28.018C35.07,27.644 35.52,27.318 35.998,27.046L35.998,16L27.998,16L28,27.046ZM32,4C30.991,4 30.019,4.381 29.279,5.067C28.539,5.753 28.086,6.694 28.01,7.7L28,8L28,12L36,12L36,8C36,6.939 35.579,5.922 34.828,5.172C34.078,4.421 33.061,4 32,4L32,4Z" fill="#B8B8B8"/>
</svg>
